<?xml version="1.0" standalone="no"?>
<!DOCTYPE svg PUBLIC "-//W3C//DTD SVG 20010904//EN"
 "http://www.w3.org/TR/2001/REC-SVG-20010904/DTD/svg10.dtd">
<svg version="1.0" xmlns="http://www.w3.org/2000/svg"
 width="250.000000pt" height="250.000000pt" viewBox="0 0 250.000000 250.000000"
 preserveAspectRatio="xMidYMid meet">
<metadata>
Created by potrace 1.14, written by Peter Selinger 2001-2017
</metadata>
<g transform="translate(0.000000,250.000000) scale(0.100000,-0.100000)"
fill="#000000" stroke="none">
<path d="M240 1735 l0 -525 490 0 490 0 0 -490 0 -490 525 0 525 0 0 1015 0
1015 -1015 0 -1015 0 0 -525z m980 0 l0 -455 -455 0 -455 0 0 455 0 455 455 0
455 0 0 -455z m980 0 l0 -455 -455 0 -455 0 0 455 0 455 455 0 455 0 0 -455z
m0 -980 l0 -455 -455 0 -455 0 0 455 0 455 455 0 455 0 0 -455z"/>
<path d="M514 1735 l0 -375 58 0 57 0 0 163 c0 89 0 167 0 174 1 8 25 13 69
15 l67 3 0 40 0 40 -67 -1 -66 -1 -4 66 c-2 36 -1 89 2 116 l5 50 83 0 82 0 0
42 0 43 -143 0 -143 0 0 -375z"/>
<path d="M874 1735 l0 -375 57 0 58 0 1 375 0 375 -58 0 -58 0 0 -375z"/>
<path d="M1465 1738 l0 -373 135 0 135 0 -1 30 c-1 17 -2 35 -3 41 -1 6 -29
10 -76 9 -46 0 -75 3 -76 10 0 5 -1 155 -1 333 l-1 322 -56 0 -57 0 1 -372z"/>
<path d="M1804 1738 l1 -373 141 -3 142 -3 -2 43 -1 43 -82 0 c-49 0 -83 4
-84 10 0 5 -1 64 -2 130 l-1 120 65 5 64 5 0 41 0 41 -58 -2 c-31 -1 -60 2
-64 7 -10 18 -9 218 2 221 6 2 41 3 78 2 70 -1 85 7 81 45 -1 8 -2 21 -3 28
-1 9 -36 12 -139 12 l-138 0 0 -372z"/>
<path d="M1368 1093 c-2 -5 -3 -125 -3 -269 2 -297 8 -337 62 -384 18 -17 41
-30 51 -31 9 -1 29 -2 44 -3 34 -3 93 17 119 40 47 42 55 148 50 597 l-1 57
-50 0 -50 0 -1 -267 c0 -148 -3 -281 -5 -298 -8 -50 -50 -69 -90 -41 -18 14
-19 31 -22 310 l-3 296 -49 0 c-27 0 -50 -3 -52 -7z"/>
<path d="M1810 754 l0 -346 103 4 c127 4 171 23 204 87 19 37 22 56 18 119 -4
83 -21 117 -71 141 -18 9 -24 16 -15 19 47 16 81 90 76 169 -7 115 -60 153
-217 153 l-98 0 0 -346z m188 240 c45 -50 28 -164 -27 -180 -63 -18 -61 -22
-61 103 l0 115 33 -7 c17 -4 42 -18 55 -31z m6 -289 c24 -22 26 -31 26 -98 0
-63 -3 -76 -22 -94 -13 -12 -40 -24 -60 -27 l-38 -6 0 125 0 125 34 0 c21 0
42 -9 60 -25z"/>
<path d="M789 1125 c-5 -4 -43 -13 -66 -14 -8 -1 -8 -10 -2 -33 19 -67 70
-290 67 -293 -11 -8 -129 -31 -133 -26 -3 6 -50 191 -60 241 -10 48 -18 70
-27 70 -10 0 -101 -22 -106 -25 -3 -2 72 -314 147 -615 32 -127 38 -145 56
-144 29 1 86 12 91 17 3 3 -27 146 -50 237 -11 40 -26 106 -26 112 0 7 40 19
106 33 30 6 32 4 39 -32 5 -21 9 -42 11 -48 3 -12 7 -26 29 -120 9 -38 18 -78
21 -88 12 -61 11 -61 89 -42 44 11 44 12 33 51 -5 20 -11 44 -13 53 -2 9 -11
48 -20 86 -9 39 -18 77 -20 85 -2 8 -29 117 -59 241 -31 125 -56 234 -56 243
0 15 -39 24 -51 11z"/>
</g>
</svg>
